# xmcd
#
# Track frame offsets:
#       150
#       17355
#       47058
#       65930
#       85952
#       112926
#       137079
#       158514
#       177260
#       197863
#       210735
#       227142
#
# Disc length: 3233 seconds
#
# Revision: 0
# Processed by: cddbd v1.5.1PL0 Copyright (c) Steve Scherf et al.
# Submitted via: WaveLab 4.01
#
DISCID=a00c9f0c
DTITLE=Lars Kjædegaards okester - Over the Clouds
DYEAR=2005
DGENRE=Country
TTITLE0=Over the clouds
TTITLE1=The Fear
TTITLE2=Journey cross the sea
TTITLE3=It's a song
TTITLE4=Stranger never more
TTITLE5=Misery
TTITLE6=Siege
TTITLE7=Old Sher
TTITLE8=Gliding down the years
TTITLE9=New Medley
TTITLE10=Out of the shadow
TTITLE11=Maybe they're on horseback
EXTD=
EXTT0=
EXTT1=
EXTT2=
EXTT3=
EXTT4=
EXTT5=
EXTT6=
EXTT7=
EXTT8=
EXTT9=
EXTT10=
EXTT11=
PLAYORDER=
